{
  "accessors": [
    {
      "bufferView": 2,
      "componentType": 5126,
      "count": 1067,
      "max": [
        3.486283302307129,
        5.716405868530273,
        9.026453971862793
      ],
      "min": [
        -3.5343024730682373,
        -0.06935673952102661,
        -8.418262481689453
      ],
      "type": "VEC3"
    },
    {
      "bufferView": 2,
      "byteOffset": 12804,
      "componentType": 5126,
      "count": 1067,
      "max": [
        0.9979457855224609,
        0.9987823963165283,
        0.9967745542526245
      ],
      "min": [
        -0.9966558814048767,
        -0.9999249577522278,
        -0.992145299911499
      ],
      "type": "VEC3"
    },
    {
      "bufferView": 3,
      "componentType": 5126,
      "count": 1067,
      "max": [
        0.9996815919876099,
        0.9994454979896545,
        0.9995393753051758,
        1.0
      ],
      "min": [
        -0.9448919296264648,
        -0.9950017929077148,
        -0.9998666048049927,
        1.0
      ],
      "type": "VEC4"
    },
    {
      "bufferView": 1,
      "componentType": 5126,
      "count": 1067,
      "max": [
        0.9811409711837769,
        0.9720138907432556
      ],
      "min": [
        0.0197302158921957,
        0.03340208902955055
      ],
      "type": "VEC2"
    },
    {
      "bufferView": 0,
      "componentType": 5125,
      "count": 5646,
      "type": "SCALAR"
    }
  ],
  "asset": {
    "extras": {
      "author": "Damn_Daniel (https://sketchfab.com/rajput.1561)",
      "license": "CC-BY-4.0 (http://creativecommons.org/licenses/by/4.0/)",
      "source": "https://sketchfab.com/3d-models/croissant-food-3ee61731b08749b3ad39d0f2375e6499",
      "title": "Croissant | Food"
    },
    "generator": "Sketchfab-16.16.0",
    "version": "2.0"
  },
  "bufferViews": [
    {
      "buffer": 0,
      "byteLength": 22584,
      "name": "floatBufferViews",
      "target": 34963
    },
    {
      "buffer": 0,
      "byteLength": 8536,
      "byteOffset": 22584,
      "byteStride": 8,
      "name": "floatBufferViews",
      "target": 34962
    },
    {
      "buffer": 0,
      "byteLength": 25608,
      "byteOffset": 31120,
      "byteStride": 12,
      "name": "floatBufferViews",
      "target": 34962
    },
    {
      "buffer": 0,
      "byteLength": 17072,
      "byteOffset": 56728,
      "byteStride": 16,
      "name": "floatBufferViews",
      "target": 34962
    }
  ],
  "buffers": [
    {
      "byteLength": 73800,
      "uri": "scene.bin"
    }
  ],
  "images": [
    {
      "uri": "textures/croissant_01_L0_baseColor.png"
    },
    {
      "uri": "textures/croissant_01_L0_metallicRoughness.png"
    },
    {
      "uri": "textures/croissant_01_L0_normal.png"
    }
  ],
  "materials": [
    {
      "doubleSided": true,
      "name": "croissant_01_L0",
      "normalTexture": {
        "index": 2
      },
      "occlusionTexture": {
        "index": 1
      },
      "pbrMetallicRoughness": {
        "baseColorTexture": {
          "index": 0
        },
        "metallicFactor": 0.0,
        "metallicRoughnessTexture": {
          "index": 1
        }
      }
    }
  ],
  "meshes": [
    {
      "name": "croissant_01_L0_croissant_01_L0_0",
      "primitives": [
        {
          "attributes": {
            "NORMAL": 1,
            "POSITION": 0,
            "TANGENT": 2,
            "TEXCOORD_0": 3
          },
          "indices": 4,
          "material": 0,
          "mode": 4
        }
      ]
    }
  ],
  "nodes": [
    {
      "children": [
        1
      ],
      "matrix": [
        1.0,
        0.0,
        0.0,
        0.0,
        0.0,
        2.220446049250313e-16,
        -1.0,
        0.0,
        0.0,
        1.0,
        2.220446049250313e-16,
        0.0,
        0.0,
        0.0,
        0.0,
        1.0
      ],
      "name": "Sketchfab_model"
    },
    {
      "children": [
        2
      ],
      "matrix": [
        0.009999999776482582,
        0.0,
        0.0,
        0.0,
        0.0,
        0.0,
        0.009999999776482582,
        0.0,
        0.0,
        -0.009999999776482582,
        0.0,
        0.0,
        0.0,
        0.0,
        0.0,
        1.0
      ],
      "name": "f9e6a31fd4854beea12ee8bfd6af9599.fbx"
    },
    {
      "children": [
        3
      ],
      "name": "RootNode"
    },
    {
      "children": [
        4
      ],
      "name": "croissant_01_L0"
    },
    {
      "mesh": 0,
      "name": "croissant_01_L0_croissant_01_L0_0"
    }
  ],
  "samplers": [
    {
      "magFilter": 9729,
      "minFilter": 9987,
      "wrapS": 10497,
      "wrapT": 10497
    }
  ],
  "scene": 0,
  "scenes": [
    {
      "name": "Sketchfab_Scene",
      "nodes": [
        0
      ]
    }
  ],
  "textures": [
    {
      "sampler": 0,
      "source": 0
    },
    {
      "sampler": 0,
      "source": 1
    },
    {
      "sampler": 0,
      "source": 2
    }
  ]
}
